<?xml version="1.0" encoding="UTF-8" standalone="no"?>
<svg
   xmlns:dc="http://purl.org/dc/elements/1.1/"
   xmlns:cc="http://creativecommons.org/ns#"
   xmlns:rdf="http://www.w3.org/1999/02/22-rdf-syntax-ns#"
   xmlns:svg="http://www.w3.org/2000/svg"
   xmlns="http://www.w3.org/2000/svg"
   viewBox="0 0 140.25 100.5"
   height="100.5"
   width="140.25"
   xml:space="preserve"
   version="1.1"
   id="svg2"><metadata
     id="metadata8"><rdf:RDF><cc:Work
         rdf:about=""><dc:format>image/svg+xml</dc:format><dc:type
           rdf:resource="http://purl.org/dc/dcmitype/StillImage" /></cc:Work></rdf:RDF></metadata><defs
     id="defs6"><clipPath
       id="clipPath12"
       clipPathUnits="userSpaceOnUse"><path
         id="path14"
         d="M 0,0 595,0 595,842 0,842 0,0 Z" /></clipPath></defs><g
     clip-path="url(#clipPath12)"
     transform="matrix(1.25,0,0,-1.25,-140,920.25)"
     id="g10"><g
       id="g16"><path
         id="path18"
         style="fill:none;stroke:#42affa;stroke-width:0.40000001;stroke-linecap:butt;stroke-linejoin:round;stroke-miterlimit:10;stroke-dasharray:none;stroke-opacity:1"
         d="m 128,736 0,-32 32,0 0,32 -32,0 z" /></g><g
       id="g20"><path
         id="path22"
         style="fill:none;stroke:#42affa;stroke-width:0.40000001;stroke-linecap:butt;stroke-linejoin:round;stroke-miterlimit:10;stroke-dasharray:none;stroke-opacity:1"
         d="m 192,736 0,-32 32,0 0,32 -32,0 z" /></g><g
       id="g24"><path
         id="path26"
         style="fill:none;stroke:#42affa;stroke-width:0.40000001;stroke-linecap:butt;stroke-linejoin:round;stroke-miterlimit:10;stroke-dasharray:none;stroke-opacity:1"
         d="m 128,688 0,-32 32,0 0,32 -32,0 z" /></g><g
       id="g28"><path
         id="path30"
         style="fill:none;stroke:#42affa;stroke-width:0.40000001;stroke-linecap:butt;stroke-linejoin:round;stroke-miterlimit:10;stroke-dasharray:none;stroke-opacity:1"
         d="m 192,688 0,-32 32,0 0,32 -32,0 z" /></g><g
       transform="translate(112,720)"
       id="g32"><g
         transform="translate(0,-787.711)"
         id="g34"><text
           id="text36"
           style="font-variant:normal;font-weight:normal;font-size:9.96259975px;font-family:CMR10;-inkscape-font-specification:CMR10;writing-mode:lr-tb;fill:#42affa;fill-opacity:1;fill-rule:nonzero;stroke:none"
           transform="matrix(1,0,0,-1,0,787.711)"><tspan
             id="tspan38"
             y="0"
             x="0">a</tspan></text>
</g></g><g
       transform="translate(176,720)"
       id="g40"><g
         transform="translate(0,-785.081)"
         id="g42"><text
           id="text44"
           style="font-variant:normal;font-weight:normal;font-size:9.96259975px;font-family:CMR10;-inkscape-font-specification:CMR10;writing-mode:lr-tb;fill:#42affa;fill-opacity:1;fill-rule:nonzero;stroke:none"
           transform="matrix(1,0,0,-1,0,785.081)"><tspan
             id="tspan46"
             y="0"
             x="0">b</tspan></text>
</g></g><g
       transform="translate(112,672)"
       id="g48"><g
         transform="translate(0,-787.711)"
         id="g50"><text
           id="text52"
           style="font-variant:normal;font-weight:normal;font-size:9.96259975px;font-family:CMR10;-inkscape-font-specification:CMR10;writing-mode:lr-tb;fill:#42affa;fill-opacity:1;fill-rule:nonzero;stroke:none"
           transform="matrix(1,0,0,-1,0,787.711)"><tspan
             id="tspan54"
             y="0"
             x="0">x</tspan></text>
</g></g><g
       transform="translate(176,670.07)"
       id="g56"><g
         transform="translate(0,-785.773)"
         id="g58"><text
           id="text60"
           style="font-variant:normal;font-weight:normal;font-size:9.96259975px;font-family:CMR10;-inkscape-font-specification:CMR10;writing-mode:lr-tb;fill:#42affa;fill-opacity:1;fill-rule:nonzero;stroke:none"
           transform="matrix(1,0,0,-1,0,787.71)"><tspan
             id="tspan62"
             y="0"
             x="0">y</tspan></text>
</g></g><g
       transform="translate(138.907,717.004)"
       id="g64"><g
         transform="translate(0,-785.58)"
         id="g66"><text
           id="text68"
           style="font-variant:normal;font-weight:normal;font-size:9.96259975px;font-family:CMR10;-inkscape-font-specification:CMR10;writing-mode:lr-tb;fill:#42affa;fill-opacity:1;fill-rule:nonzero;stroke:none"
           transform="matrix(1,0,0,-1,0,785.58)"><tspan
             id="tspan70"
             y="0"
             x="0 4.9812999">42</tspan></text>
</g></g><g
       transform="translate(138.907,669.004)"
       id="g72"><g
         transform="translate(0,-785.58)"
         id="g74"><text
           id="text76"
           style="font-variant:normal;font-weight:normal;font-size:9.96259975px;font-family:CMR10;-inkscape-font-specification:CMR10;writing-mode:lr-tb;fill:#42affa;fill-opacity:1;fill-rule:nonzero;stroke:none"
           transform="matrix(1,0,0,-1,0,785.58)"><tspan
             id="tspan78"
             y="0"
             x="0 4.9812999">42</tspan></text>
</g></g><g
       transform="translate(203.206,716.704)"
       id="g80"><g
         transform="translate(0,-785.58)"
         id="g82"><text
           id="text84"
           style="font-variant:normal;font-weight:normal;font-size:9.96259975px;font-family:CMR10;-inkscape-font-specification:CMR10;writing-mode:lr-tb;fill:#42affa;fill-opacity:1;fill-rule:nonzero;stroke:none"
           transform="matrix(1,0,0,-1,0,785.58)"><tspan
             id="tspan86"
             y="0"
             x="0 4.9812999">13</tspan></text>
</g></g><g
       transform="translate(203.206,668.704)"
       id="g88"><g
         transform="translate(0,-785.58)"
         id="g90"><text
           id="text92"
           style="font-variant:normal;font-weight:normal;font-size:9.96259975px;font-family:CMR10;-inkscape-font-specification:CMR10;writing-mode:lr-tb;fill:#42affa;fill-opacity:1;fill-rule:nonzero;stroke:none"
           transform="matrix(1,0,0,-1,0,785.58)"><tspan
             id="tspan94"
             y="0"
             x="0 4.9812999">13</tspan></text>
</g></g></g></svg>
