<?xml version="1.0" encoding="UTF-8" standalone="no"?>
<svg
   xmlns:dc="http://purl.org/dc/elements/1.1/"
   xmlns:cc="http://creativecommons.org/ns#"
   xmlns:rdf="http://www.w3.org/1999/02/22-rdf-syntax-ns#"
   xmlns:svg="http://www.w3.org/2000/svg"
   xmlns="http://www.w3.org/2000/svg"
   viewBox="0 0 320.25 180.25"
   height="180.25"
   width="320.25"
   xml:space="preserve"
   version="1.1"
   id="svg2"><metadata
     id="metadata8"><rdf:RDF><cc:Work
         rdf:about=""><dc:format>image/svg+xml</dc:format><dc:type
           rdf:resource="http://purl.org/dc/dcmitype/StillImage" /></cc:Work></rdf:RDF></metadata><defs
     id="defs6"><clipPath
       id="clipPath12"
       clipPathUnits="userSpaceOnUse"><path
         id="path14"
         d="M 0,0 595,0 595,842 0,842 0,0 Z" /></clipPath></defs><g
     clip-path="url(#clipPath12)"
     transform="matrix(1.25,0,0,-1.25,-100,900.25)"
     id="g10"><g
       id="g16"><path
         id="path18"
         style="fill:none;stroke:#000000;stroke-width:0.40000001;stroke-linecap:butt;stroke-linejoin:round;stroke-miterlimit:10;stroke-dasharray:none;stroke-opacity:1"
         d="m 128,672 0,-32 32,0 0,32 -32,0 z" /></g><g
       id="g20"><path
         id="path22"
         style="fill:none;stroke:#000000;stroke-width:0.40000001;stroke-linecap:butt;stroke-linejoin:round;stroke-miterlimit:10;stroke-dasharray:none;stroke-opacity:1"
         d="m 192,720 0,-32 32,0 0,32 -32,0 z" /></g><g
       id="g24"><path
         id="path26"
         style="fill:none;stroke:#000000;stroke-width:0.40000001;stroke-linecap:butt;stroke-linejoin:round;stroke-miterlimit:10;stroke-dasharray:none;stroke-opacity:1"
         d="m 240,624 0,-32 32,0 0,32 -32,0 z" /></g><g
       id="g28"><path
         id="path30"
         style="fill:none;stroke:#000000;stroke-width:0.40000001;stroke-linecap:butt;stroke-linejoin:round;stroke-miterlimit:10;stroke-dasharray:none;stroke-opacity:1"
         d="m 288,672 0,-32 32,0 0,32 -32,0 z" /></g><g
       transform="translate(80,656)"
       id="g32"><g
         transform="translate(0,-785.192)"
         id="g34"><text
           id="text36"
           style="font-variant:normal;font-weight:normal;font-size:9.96259975px;font-family:CMR10;-inkscape-font-specification:CMR10;writing-mode:lr-tb;fill:#000000;fill-opacity:1;fill-rule:nonzero;stroke:none"
           transform="matrix(1,0,0,-1,0,785.192)"><tspan
             id="tspan38"
             y="0"
             x="0 5.5352206 11.070441 15.497821 21.724445 24.492056 28.421305 32.295761">uneListe</tspan></text>
</g></g><g
       transform="translate(192,576)"
       id="g40"><g
         transform="translate(0,-785.081)"
         id="g42"><text
           id="text44"
           style="font-variant:normal;font-weight:normal;font-size:9.96259975px;font-family:CMR10;-inkscape-font-specification:CMR10;writing-mode:lr-tb;fill:#000000;fill-opacity:1;fill-rule:nonzero;stroke:none"
           transform="matrix(1,0,0,-1,0,785.081)"><tspan
             id="tspan46"
             y="0"
             x="0 2.7676103 5.5352206 9.4644699 13.338925 21.083851 26.61907 34.373959 38.801338 43.782639 47.68499 52.66629 57.09367 60.689171 60.968124 65.3955 69.297852 73.725235">listedecaract`eres</tspan></text>
</g></g><g
       transform="translate(140,652)"
       id="g48"><g
         transform="translate(0,-785.081)"
         id="g50"><text
           id="text52"
           style="font-variant:normal;font-weight:normal;font-size:9.96259975px;font-family:CMR10;-inkscape-font-specification:CMR10;writing-mode:lr-tb;fill:#000000;fill-opacity:1;fill-rule:nonzero;stroke:none"
           transform="matrix(1,0,0,-1,0,785.081)"><tspan
             id="tspan54"
             y="0"
             x="0 2.7676103 8.3028307">’h’</tspan></text>
</g></g><g
       transform="translate(204,700)"
       id="g56"><g
         transform="translate(0,-785.081)"
         id="g58"><text
           id="text60"
           style="font-variant:normal;font-weight:normal;font-size:9.96259975px;font-family:CMR10;-inkscape-font-specification:CMR10;writing-mode:lr-tb;fill:#000000;fill-opacity:1;fill-rule:nonzero;stroke:none"
           transform="matrix(1,0,0,-1,0,785.081)"><tspan
             id="tspan62"
             y="0"
             x="0 2.7676103 7.1949897">’e’</tspan></text>
</g></g><g
       transform="translate(252,604)"
       id="g64"><g
         transform="translate(0,-785.081)"
         id="g66"><text
           id="text68"
           style="font-variant:normal;font-weight:normal;font-size:9.96259975px;font-family:CMR10;-inkscape-font-specification:CMR10;writing-mode:lr-tb;fill:#000000;fill-opacity:1;fill-rule:nonzero;stroke:none"
           transform="matrix(1,0,0,-1,0,785.081)"><tspan
             id="tspan70"
             y="0"
             x="0 2.7676103 5.5352206">’l’</tspan></text>
</g></g><g
       transform="translate(300,652)"
       id="g72"><g
         transform="translate(0,-785.081)"
         id="g74"><text
           id="text76"
           style="font-variant:normal;font-weight:normal;font-size:9.96259975px;font-family:CMR10;-inkscape-font-specification:CMR10;writing-mode:lr-tb;fill:#000000;fill-opacity:1;fill-rule:nonzero;stroke:none"
           transform="matrix(1,0,0,-1,0,785.081)"><tspan
             id="tspan78"
             y="0"
             x="0 2.7676103 5.5352206">’l’</tspan></text>
</g></g><g
       id="g80"><path
         id="path82"
         style="fill:none;stroke:#000000;stroke-width:0.40000001;stroke-linecap:butt;stroke-linejoin:round;stroke-miterlimit:10;stroke-dasharray:none;stroke-opacity:1"
         d="m 160,656 32,48" /><g
         id="g84"><g
           id="g86"><path
             id="path88"
             style="fill:#000000;fill-opacity:1;fill-rule:evenodd;stroke:#000000;stroke-width:0.40000001;stroke-linecap:butt;stroke-linejoin:round;stroke-miterlimit:10;stroke-dasharray:none;stroke-opacity:1"
             d="m 192,704 -5.822,-4.531 3.879,-2.586 L 192,704 Z" /></g></g></g><g
       id="g90"><path
         id="path92"
         style="fill:none;stroke:#000000;stroke-width:0.40000001;stroke-linecap:butt;stroke-linejoin:round;stroke-miterlimit:10;stroke-dasharray:none;stroke-opacity:1"
         d="m 224,704 16,-96" /><g
         id="g94"><g
           id="g96"><path
             id="path98"
             style="fill:#000000;fill-opacity:1;fill-rule:evenodd;stroke:#000000;stroke-width:0.40000001;stroke-linecap:butt;stroke-linejoin:round;stroke-miterlimit:10;stroke-dasharray:none;stroke-opacity:1"
             d="m 240,608 1.148,7.288 -4.598,-0.766 L 240,608 Z" /></g></g></g><g
       id="g100"><path
         id="path102"
         style="fill:none;stroke:#000000;stroke-width:0.40000001;stroke-linecap:butt;stroke-linejoin:round;stroke-miterlimit:10;stroke-dasharray:none;stroke-opacity:1"
         d="m 272,608 16,48" /><g
         id="g104"><g
           id="g106"><path
             id="path108"
             style="fill:#000000;fill-opacity:1;fill-rule:evenodd;stroke:#000000;stroke-width:0.40000001;stroke-linecap:butt;stroke-linejoin:round;stroke-miterlimit:10;stroke-dasharray:none;stroke-opacity:1"
             d="m 288,656 -4.425,-5.904 4.423,-1.474 L 288,656 Z" /></g></g></g><g
       id="g110"><path
         id="path112"
         style="fill:none;stroke:#000000;stroke-width:0.40000001;stroke-linecap:butt;stroke-linejoin:round;stroke-miterlimit:10;stroke-dasharray:1, 3;stroke-dashoffset:0;stroke-opacity:1"
         d="m 320,656 16,16" /></g></g></svg>