<?xml version="1.0" encoding="UTF-8" standalone="no"?>
<svg
   xmlns:dc="http://purl.org/dc/elements/1.1/"
   xmlns:cc="http://creativecommons.org/ns#"
   xmlns:rdf="http://www.w3.org/1999/02/22-rdf-syntax-ns#"
   xmlns:svg="http://www.w3.org/2000/svg"
   xmlns="http://www.w3.org/2000/svg"
   viewBox="0 0 270.58499 113.395"
   height="113.395"
   width="270.58499"
   xml:space="preserve"
   version="1.1"
   id="svg2"><metadata
     id="metadata8"><rdf:RDF><cc:Work
         rdf:about=""><dc:format>image/svg+xml</dc:format><dc:type
           rdf:resource="http://purl.org/dc/dcmitype/StillImage" /></cc:Work></rdf:RDF></metadata><defs
     id="defs6"><clipPath
       id="clipPath12"
       clipPathUnits="userSpaceOnUse"><path
         id="path14"
         d="M 0,0 595,0 595,842 0,842 0,0 Z" /></clipPath></defs><g
     clip-path="url(#clipPath12)"
     transform="matrix(1.25,0,0,-1.25,-209.665,874.4025)"
     id="g10"><g
       id="g16"><path
         id="path18"
         style="fill:none;stroke:#000000;stroke-width:0.40000001;stroke-linecap:butt;stroke-linejoin:round;stroke-miterlimit:10;stroke-dasharray:none;stroke-opacity:1"
         d="m 192,640 0,32 32,0 0,-32 -32,0 z" /></g><g
       transform="translate(168.568,651.074)"
       id="g20"><g
         transform="translate(0,-783.935)"
         id="g22"><text
           id="text24"
           style="font-variant:normal;font-weight:normal;font-size:9.96259975px;font-family:CMR10;-inkscape-font-specification:CMR10;writing-mode:lr-tb;fill:#000000;fill-opacity:1;fill-rule:nonzero;stroke:none"
           transform="matrix(1,0,0,-1,0,785.872)"><tspan
             id="tspan26"
             y="0"
             x="0 5.5352206 9.4096756">ptr</tspan></text>
</g></g><g
       transform="translate(167.732,622.969)"
       id="g28"><g
         transform="translate(0,-783.409)"
         id="g30"><text
           id="text32"
           style="font-variant:normal;font-weight:normal;font-size:9.96259975px;font-family:CMR10;-inkscape-font-specification:CMR10;writing-mode:lr-tb;fill:#000000;fill-opacity:1;fill-rule:nonzero;stroke:none"
           transform="matrix(1,0,0,-1,0,785.346)"><tspan
             id="tspan34"
             y="0"
             x="0 5.8141732 10.795473 13.563084 18.819351 22.693806 27.121185 32.656406 39.876305 44.85561 49.28299 53.185341 60.442097 64.869476 70.125748 74.000198 76.767807 81.19519">pointeurversentier</tspan></text>
</g></g><g
       id="g36"><path
         id="path38"
         style="fill:none;stroke:#000000;stroke-width:0.40000001;stroke-linecap:butt;stroke-linejoin:round;stroke-miterlimit:10;stroke-dasharray:none;stroke-opacity:1"
         d="m 320,680 0,-8" /></g><g
       id="g40"><path
         id="path42"
         style="fill:none;stroke:#000000;stroke-width:0.40000001;stroke-linecap:butt;stroke-linejoin:round;stroke-miterlimit:10;stroke-dasharray:none;stroke-opacity:1"
         d="m 328,680 0,-8" /></g><g
       id="g44"><path
         id="path46"
         style="fill:none;stroke:#000000;stroke-width:0.40000001;stroke-linecap:butt;stroke-linejoin:round;stroke-miterlimit:10;stroke-dasharray:none;stroke-opacity:1"
         d="m 336,680 0,-8" /></g><g
       id="g48"><path
         id="path50"
         style="fill:none;stroke:#000000;stroke-width:0.40000001;stroke-linecap:butt;stroke-linejoin:round;stroke-miterlimit:10;stroke-dasharray:none;stroke-opacity:1"
         d="m 344,680 0,-8" /></g><g
       id="g52"><path
         id="path54"
         style="fill:none;stroke:#000000;stroke-width:0.40000001;stroke-linecap:butt;stroke-linejoin:round;stroke-miterlimit:10;stroke-dasharray:none;stroke-opacity:1"
         d="m 352,680 0,-8" /></g><g
       transform="translate(325.093,624.3)"
       id="g56"><g
         transform="translate(0,-785.346)"
         id="g58"><text
           id="text60"
           style="font-variant:normal;font-weight:normal;font-size:9.96259975px;font-family:CMR10;-inkscape-font-specification:CMR10;writing-mode:lr-tb;fill:#000000;fill-opacity:1;fill-rule:nonzero;stroke:none"
           transform="matrix(1,0,0,-1,0,785.346)"><tspan
             id="tspan62"
             y="0"
             x="0 4.4273796 9.6836472 13.558103 16.325712 20.753092">entier</tspan></text>
</g></g><g
       transform="translate(315.206,608.806)"
       id="g64"><g
         transform="translate(0,-782.037)"
         id="g66"><text
           id="text68"
           style="font-variant:normal;font-weight:normal;font-size:9.96259975px;font-family:CMR10;-inkscape-font-specification:CMR10;writing-mode:lr-tb;fill:#000000;fill-opacity:1;fill-rule:nonzero;stroke:none"
           transform="matrix(1,0,0,-1,0,784.528)"><tspan
             id="tspan70"
             y="0"
             x="0 3.8744552 12.173301 17.433554 21.860933 25.735388 30.162767 34.037224 37.966473">(4octets)</tspan></text>
</g></g><g
       id="g72"><path
         id="path74"
         style="fill:none;stroke:#000000;stroke-width:0.40000001;stroke-linecap:butt;stroke-linejoin:round;stroke-miterlimit:10;stroke-dasharray:4;stroke-dashoffset:0;stroke-opacity:1"
         d="m 352,672 0,-32 32,0 0,32 -32,0 z" /></g><g
       id="g76"><path
         id="path78"
         style="fill:none;stroke:#000000;stroke-width:0.40000001;stroke-linecap:butt;stroke-linejoin:round;stroke-miterlimit:10;stroke-dasharray:none;stroke-opacity:1"
         d="m 320,672 0,-32 32,0 0,32 -32,0 z" /></g><g
       transform="translate(196.405,652.195)"
       id="g80"><g
         transform="translate(0,-785.58)"
         id="g82"><text
           id="text84"
           style="font-variant:normal;font-weight:normal;font-size:9.96259975px;font-family:CMR10;-inkscape-font-specification:CMR10;writing-mode:lr-tb;fill:#000000;fill-opacity:1;fill-rule:nonzero;stroke:none"
           transform="matrix(1,0,0,-1,0,785.58)"><tspan
             id="tspan86"
             y="0"
             x="0 4.9812999 10.23956 13.007171 15.774781 18.542391">0x...5</tspan></text>
</g></g><g
       transform="translate(321.07,675.999)"
       id="g88"><g
         transform="translate(6.42,0)"
         id="g90"><g
           transform="matrix(0,1,-1,0,768.477,-6.42)"
           id="g92"><text
             id="text94"
             style="font-variant:normal;font-weight:normal;font-size:9.96259975px;font-family:CMR10;-inkscape-font-specification:CMR10;writing-mode:lr-tb;fill:#000000;fill-opacity:1;fill-rule:nonzero;stroke:none"
             transform="matrix(1,0,0,-1,6.42,768.477)"><tspan
               id="tspan96"
               y="0"
               x="0 4.9812999 10.23956 13.007171 15.774781 18.542391">0x...5</tspan></text>
<g
             transform="translate(6.42,768.477)"
             id="g98" /></g></g></g><g
       transform="translate(329.07,675.999)"
       id="g100"><g
         transform="translate(6.42,0)"
         id="g102"><g
           transform="matrix(0,1,-1,0,768.477,-6.42)"
           id="g104"><text
             id="text106"
             style="font-variant:normal;font-weight:normal;font-size:9.96259975px;font-family:CMR10;-inkscape-font-specification:CMR10;writing-mode:lr-tb;fill:#000000;fill-opacity:1;fill-rule:nonzero;stroke:none"
             transform="matrix(1,0,0,-1,6.42,768.477)"><tspan
               id="tspan108"
               y="0"
               x="0 4.9812999 10.23956 13.007171 15.774781 18.542391">0x...6</tspan></text>
<g
             transform="translate(6.42,768.477)"
             id="g110" /></g></g></g><g
       transform="translate(337.07,675.999)"
       id="g112"><g
         transform="translate(6.42,0)"
         id="g114"><g
           transform="matrix(0,1,-1,0,768.477,-6.42)"
           id="g116"><text
             id="text118"
             style="font-variant:normal;font-weight:normal;font-size:9.96259975px;font-family:CMR10;-inkscape-font-specification:CMR10;writing-mode:lr-tb;fill:#000000;fill-opacity:1;fill-rule:nonzero;stroke:none"
             transform="matrix(1,0,0,-1,6.42,768.477)"><tspan
               id="tspan120"
               y="0"
               x="0 4.9812999 10.23956 13.007171 15.774781 18.542391">0x...7</tspan></text>
<g
             transform="translate(6.42,768.477)"
             id="g122" /></g></g></g><g
       transform="translate(345.07,675.999)"
       id="g124"><g
         transform="translate(6.42,0)"
         id="g126"><g
           transform="matrix(0,1,-1,0,768.477,-6.42)"
           id="g128"><text
             id="text130"
             style="font-variant:normal;font-weight:normal;font-size:9.96259975px;font-family:CMR10;-inkscape-font-specification:CMR10;writing-mode:lr-tb;fill:#000000;fill-opacity:1;fill-rule:nonzero;stroke:none"
             transform="matrix(1,0,0,-1,6.42,768.477)"><tspan
               id="tspan132"
               y="0"
               x="0 4.9812999 10.23956 13.007171 15.774781 18.542391">0x...8</tspan></text>
<g
             transform="translate(6.42,768.477)"
             id="g134" /></g></g></g><g
       transform="translate(353.07,675.999)"
       id="g136"><g
         transform="translate(6.42,0)"
         id="g138"><g
           transform="matrix(0,1,-1,0,768.477,-6.42)"
           id="g140"><text
             id="text142"
             style="font-variant:normal;font-weight:normal;font-size:9.96259975px;font-family:CMR10;-inkscape-font-specification:CMR10;writing-mode:lr-tb;fill:#000000;fill-opacity:1;fill-rule:nonzero;stroke:none"
             transform="matrix(1,0,0,-1,6.42,768.477)"><tspan
               id="tspan144"
               y="0"
               x="0 4.9812999 10.23956 13.007171 15.774781 18.542391">0x...9</tspan></text>
<g
             transform="translate(6.42,768.477)"
             id="g146" /></g></g></g><g
       transform="translate(334.202,653.004)"
       id="g148"><g
         transform="translate(0,-784.296)"
         id="g150"><text
           id="text152"
           style="font-variant:normal;font-weight:normal;font-size:11.9552002px;font-family:CMR12;-inkscape-font-specification:CMR12;writing-mode:lr-tb;fill:#000000;fill-opacity:1;fill-rule:nonzero;stroke:none"
           transform="matrix(1,0,0,-1,0,784.296)"><tspan
             id="tspan154"
             y="0"
             x="0">2</tspan></text>
</g></g><g
       transform="translate(308.794,652.405)"
       id="g156"><g
         transform="translate(0,-786.853)"
         id="g158"><text
           id="text160"
           style="font-variant:normal;font-weight:normal;font-size:11.9552002px;font-family:CMR12;-inkscape-font-specification:CMR12;writing-mode:lr-tb;fill:#000000;fill-opacity:1;fill-rule:nonzero;stroke:none"
           transform="matrix(1,0,0,-1,0,786.853)"><tspan
             id="tspan162"
             y="0"
             x="0">x</tspan></text>
</g></g><g
       id="g164"><path
         id="path166"
         style="fill:none;stroke:#000000;stroke-width:0.40000001;stroke-linecap:butt;stroke-linejoin:round;stroke-miterlimit:10;stroke-dasharray:1, 3;stroke-dashoffset:0;stroke-opacity:1"
         d="m 328,672 0,-32" /></g><g
       id="g168"><path
         id="path170"
         style="fill:none;stroke:#000000;stroke-width:0.40000001;stroke-linecap:butt;stroke-linejoin:round;stroke-miterlimit:10;stroke-dasharray:1, 3;stroke-dashoffset:0;stroke-opacity:1"
         d="m 336,672 0,-32" /></g><g
       id="g172"><path
         id="path174"
         style="fill:none;stroke:#000000;stroke-width:0.40000001;stroke-linecap:butt;stroke-linejoin:round;stroke-miterlimit:10;stroke-dasharray:1, 3;stroke-dashoffset:0;stroke-opacity:1"
         d="m 344,672 0,-32" /></g><g
       id="g176"><path
         id="path178"
         style="fill:none;stroke:#000000;stroke-width:0.40000001;stroke-linecap:butt;stroke-linejoin:round;stroke-miterlimit:10;stroke-dasharray:1, 3;stroke-dashoffset:0;stroke-opacity:1"
         d="m 360,672 0,-32" /></g></g></svg>