<?xml version="1.0" encoding="UTF-8" standalone="no"?>
<svg
   xmlns:dc="http://purl.org/dc/elements/1.1/"
   xmlns:cc="http://creativecommons.org/ns#"
   xmlns:rdf="http://www.w3.org/1999/02/22-rdf-syntax-ns#"
   xmlns:svg="http://www.w3.org/2000/svg"
   xmlns="http://www.w3.org/2000/svg"
   viewBox="0 0 300.25 60.25"
   height="60.25"
   width="300.25"
   xml:space="preserve"
   version="1.1"
   id="svg2"><metadata
     id="metadata8"><rdf:RDF><cc:Work
         rdf:about=""><dc:format>image/svg+xml</dc:format><dc:type
           rdf:resource="http://purl.org/dc/dcmitype/StillImage" /></cc:Work></rdf:RDF></metadata><defs
     id="defs6"><clipPath
       id="clipPath12"
       clipPathUnits="userSpaceOnUse"><path
         id="path14"
         d="M 0,0 595,0 595,842 0,842 0,0 Z" /></clipPath></defs><g
     clip-path="url(#clipPath12)"
     transform="matrix(1.25,0,0,-1.25,-100,920.25)"
     id="g10"><g
       transform="translate(140,716)"
       id="g16"><g
         transform="translate(0,-785.58)"
         id="g18"><text
           id="text20"
           style="font-variant:normal;font-weight:normal;font-size:9.96259975px;font-family:CMR10;-inkscape-font-specification:CMR10;writing-mode:lr-tb;fill:#000000;fill-opacity:1;fill-rule:nonzero;stroke:none"
           transform="matrix(1,0,0,-1,0,785.58)"><tspan
             id="tspan22"
             y="0"
             x="0">2</tspan></text>
</g></g><g
       id="g24"><path
         id="path26"
         style="fill:none;stroke:#000000;stroke-width:0.40000001;stroke-linecap:butt;stroke-linejoin:round;stroke-miterlimit:10;stroke-dasharray:none;stroke-opacity:1"
         d="m 128,736 0,-32 32,0 0,32 -32,0 z" /></g><g
       transform="translate(160,688)"
       id="g28"><g
         transform="translate(0,-785.081)"
         id="g30"><text
           id="text32"
           style="font-variant:normal;font-weight:normal;font-size:9.96259975px;font-family:CMR10;-inkscape-font-specification:CMR10;writing-mode:lr-tb;fill:#000000;fill-opacity:1;fill-rule:nonzero;stroke:none"
           transform="matrix(1,0,0,-1,0,785.081)"><tspan
             id="tspan34"
             y="0"
             x="0 3.8744552 8.8557549 14.390976 17.158587 21.585966 26.567265 35.420033 40.955254 43.722862 48.150242 53.406509 57.280964 60.048576 64.475952 68.378304">tableaud’entiers</tspan></text>
</g></g><g
       transform="translate(80,720)"
       id="g36"><g
         transform="translate(0,-785.081)"
         id="g38"><text
           id="text40"
           style="font-variant:normal;font-weight:normal;font-size:9.96259975px;font-family:CMR10;-inkscape-font-specification:CMR10;writing-mode:lr-tb;fill:#000000;fill-opacity:1;fill-rule:nonzero;stroke:none"
           transform="matrix(1,0,0,-1,0,785.081)"><tspan
             id="tspan42"
             y="0"
             x="0 5.5352206 11.070441 17.438536 22.419834 27.955055 30.722666 35.150043 40.131344">unTableau</tspan></text>
</g></g><g
       id="g44"><path
         id="path46"
         style="fill:none;stroke:#000000;stroke-width:0.40000001;stroke-linecap:round;stroke-linejoin:round;stroke-miterlimit:10;stroke-dasharray:none;stroke-opacity:1"
         d="m 320,736 0,0" /></g><g
       id="g48"><path
         id="path50"
         style="fill:none;stroke:#000000;stroke-width:0.40000001;stroke-linecap:butt;stroke-linejoin:round;stroke-miterlimit:10;stroke-dasharray:1, 3;stroke-dashoffset:0;stroke-opacity:1"
         d="m 256,736 64,0" /></g><g
       id="g52"><path
         id="path54"
         style="fill:none;stroke:#000000;stroke-width:0.40000001;stroke-linecap:butt;stroke-linejoin:round;stroke-miterlimit:10;stroke-dasharray:1, 3;stroke-dashoffset:0;stroke-opacity:1"
         d="m 256,704 64,0" /></g><g
       id="g56"><path
         id="path58"
         style="fill:none;stroke:#000000;stroke-width:0.40000001;stroke-linecap:butt;stroke-linejoin:round;stroke-miterlimit:10;stroke-dasharray:1, 3;stroke-dashoffset:0;stroke-opacity:1"
         d="m 288,736 0,-32" /></g><g
       transform="translate(172,716)"
       id="g60"><g
         transform="translate(0,-785.58)"
         id="g62"><text
           id="text64"
           style="font-variant:normal;font-weight:normal;font-size:9.96259975px;font-family:CMR10;-inkscape-font-specification:CMR10;writing-mode:lr-tb;fill:#000000;fill-opacity:1;fill-rule:nonzero;stroke:none"
           transform="matrix(1,0,0,-1,0,785.58)"><tspan
             id="tspan66"
             y="0"
             x="0">5</tspan></text>
</g></g><g
       id="g68"><path
         id="path70"
         style="fill:none;stroke:#000000;stroke-width:0.40000001;stroke-linecap:butt;stroke-linejoin:round;stroke-miterlimit:10;stroke-dasharray:none;stroke-opacity:1"
         d="m 160,736 0,-32 32,0 0,32 -32,0 z" /></g><g
       transform="translate(204,716)"
       id="g72"><g
         transform="translate(0,-785.58)"
         id="g74"><text
           id="text76"
           style="font-variant:normal;font-weight:normal;font-size:9.96259975px;font-family:CMR10;-inkscape-font-specification:CMR10;writing-mode:lr-tb;fill:#000000;fill-opacity:1;fill-rule:nonzero;stroke:none"
           transform="matrix(1,0,0,-1,0,785.58)"><tspan
             id="tspan78"
             y="0"
             x="0">1</tspan></text>
</g></g><g
       id="g80"><path
         id="path82"
         style="fill:none;stroke:#000000;stroke-width:0.40000001;stroke-linecap:butt;stroke-linejoin:round;stroke-miterlimit:10;stroke-dasharray:none;stroke-opacity:1"
         d="m 192,736 0,-32 32,0 0,32 -32,0 z" /></g><g
       transform="translate(236,716)"
       id="g84"><g
         transform="translate(0,-785.58)"
         id="g86"><text
           id="text88"
           style="font-variant:normal;font-weight:normal;font-size:9.96259975px;font-family:CMR10;-inkscape-font-specification:CMR10;writing-mode:lr-tb;fill:#000000;fill-opacity:1;fill-rule:nonzero;stroke:none"
           transform="matrix(1,0,0,-1,0,785.58)"><tspan
             id="tspan90"
             y="0"
             x="0">0</tspan></text>
</g></g><g
       id="g92"><path
         id="path94"
         style="fill:none;stroke:#000000;stroke-width:0.40000001;stroke-linecap:butt;stroke-linejoin:round;stroke-miterlimit:10;stroke-dasharray:none;stroke-opacity:1"
         d="m 224,736 0,-32 32,0 0,32 -32,0 z" /></g></g></svg>