<?xml version="1.0" encoding="UTF-8" standalone="no"?>
<svg
   xmlns:dc="http://purl.org/dc/elements/1.1/"
   xmlns:cc="http://creativecommons.org/ns#"
   xmlns:rdf="http://www.w3.org/1999/02/22-rdf-syntax-ns#"
   xmlns:svg="http://www.w3.org/2000/svg"
   xmlns="http://www.w3.org/2000/svg"
   viewBox="0 0 184.1925 42.662498"
   height="42.662498"
   width="184.1925"
   xml:space="preserve"
   version="1.1"
   id="svg2"><metadata
     id="metadata8"><rdf:RDF><cc:Work
         rdf:about=""><dc:format>image/svg+xml</dc:format><dc:type
           rdf:resource="http://purl.org/dc/dcmitype/StillImage" /></cc:Work></rdf:RDF></metadata><defs
     id="defs6"><clipPath
       id="clipPath12"
       clipPathUnits="userSpaceOnUse"><path
         id="path14"
         d="M 0,0 595,0 595,842 0,842 0,0 Z" /></clipPath></defs><g
     clip-path="url(#clipPath12)"
     transform="matrix(1.25,0,0,-1.25,-160,740.25)"
     id="g10"><g
       transform="translate(192,576)"
       id="g16"><g
         transform="translate(0,-785.081)"
         id="g18"><text
           id="text20"
           style="font-variant:normal;font-weight:normal;font-size:9.96259975px;font-family:CMR10;-inkscape-font-specification:CMR10;writing-mode:lr-tb;fill:#000000;fill-opacity:1;fill-rule:nonzero;stroke:none"
           transform="matrix(1,0,0,-1,0,785.081)"><tspan
             id="tspan22"
             y="0"
             x="0 4.7003546 9.6816549 12.449265 16.876644 22.411865">valeur</tspan></text>
</g></g><g
       transform="translate(192,558.07)"
       id="g24"><g
         transform="translate(0,-783.935)"
         id="g26"><text
           id="text28"
           style="font-variant:normal;font-weight:normal;font-size:9.96259975px;font-family:CMR10;-inkscape-font-specification:CMR10;writing-mode:lr-tb;fill:#000000;fill-opacity:1;fill-rule:nonzero;stroke:none"
           transform="matrix(1,0,0,-1,0,785.872)"><tspan
             id="tspan30"
             y="0"
             x="0 3.5955024 8.8537626 14.667936">type</tspan></text>
</g></g><g
       id="g32"><path
         id="path34"
         style="fill:none;stroke:#000000;stroke-width:0.40000001;stroke-linecap:butt;stroke-linejoin:round;stroke-miterlimit:10;stroke-dasharray:none;stroke-opacity:1"
         d="m 184,592 0,-24 56,0 0,24 -56,0 z" /></g><g
       transform="translate(128,576)"
       id="g36"><g
         transform="translate(0,-785.081)"
         id="g38"><text
           id="text40"
           style="font-variant:normal;font-weight:normal;font-size:9.96259975px;font-family:CMR10;-inkscape-font-specification:CMR10;writing-mode:lr-tb;fill:#000000;fill-opacity:1;fill-rule:nonzero;stroke:none"
           transform="matrix(1,0,0,-1,0,785.081)"><tspan
             id="tspan42"
             y="0"
             x="0 2.7676103 8.3028307 12.73021 17.986479 21.860933 24.628544 30.163765 35.145065 40.401333">identifant</tspan></text>
</g></g></g></svg>