<?xml version="1.0" encoding="UTF-8"?>
<svg xmlns="http://www.w3.org/2000/svg" xmlns:xlink="http://www.w3.org/1999/xlink" width="81pt" height="81pt" viewBox="0 0 81 81" version="1.1">
<g id="surface1">
<path style="fill:none;stroke-width:0.4;stroke-linecap:butt;stroke-linejoin:round;stroke:rgb(0%,0%,0%);stroke-opacity:1;stroke-miterlimit:10;" d="M 127.999219 704.000781 L 127.999219 688.000781 L 143.999219 688.000781 L 143.999219 704.000781 Z M 127.999219 704.000781 " transform="matrix(1,0,0,-1,-127.8,704.2)"/>
<path style="fill:none;stroke-width:0.4;stroke-linecap:butt;stroke-linejoin:round;stroke:rgb(0%,0%,0%);stroke-opacity:1;stroke-miterlimit:10;" d="M 143.999219 704.000781 L 143.999219 688.000781 L 159.999219 688.000781 L 159.999219 704.000781 Z M 143.999219 704.000781 " transform="matrix(1,0,0,-1,-127.8,704.2)"/>
<path style="fill:none;stroke-width:0.4;stroke-linecap:butt;stroke-linejoin:round;stroke:rgb(0%,0%,0%);stroke-opacity:1;stroke-miterlimit:10;" d="M 159.999219 704.000781 L 159.999219 688.000781 L 175.999219 688.000781 L 175.999219 704.000781 Z M 159.999219 704.000781 " transform="matrix(1,0,0,-1,-127.8,704.2)"/>
<path style="fill:none;stroke-width:0.4;stroke-linecap:butt;stroke-linejoin:round;stroke:rgb(0%,0%,0%);stroke-opacity:1;stroke-miterlimit:10;" d="M 191.999219 704.000781 L 191.999219 688.000781 L 207.999219 688.000781 L 207.999219 704.000781 Z M 191.999219 704.000781 " transform="matrix(1,0,0,-1,-127.8,704.2)"/>
<path style="fill:none;stroke-width:0.4;stroke-linecap:butt;stroke-linejoin:round;stroke:rgb(0%,0%,0%);stroke-opacity:1;stroke-miterlimit:10;" d="M 175.999219 704.000781 L 175.999219 688.000781 L 191.999219 688.000781 L 191.999219 704.000781 Z M 175.999219 704.000781 " transform="matrix(1,0,0,-1,-127.8,704.2)"/>
<path style="fill:none;stroke-width:0.4;stroke-linecap:butt;stroke-linejoin:round;stroke:rgb(0%,0%,0%);stroke-opacity:1;stroke-miterlimit:10;" d="M 127.999219 688.000781 L 127.999219 672.000781 L 143.999219 672.000781 L 143.999219 688.000781 Z M 127.999219 688.000781 " transform="matrix(1,0,0,-1,-127.8,704.2)"/>
<path style="fill:none;stroke-width:0.4;stroke-linecap:butt;stroke-linejoin:round;stroke:rgb(0%,0%,0%);stroke-opacity:1;stroke-miterlimit:10;" d="M 143.999219 688.000781 L 143.999219 672.000781 L 159.999219 672.000781 L 159.999219 688.000781 Z M 143.999219 688.000781 " transform="matrix(1,0,0,-1,-127.8,704.2)"/>
<path style="fill:none;stroke-width:0.4;stroke-linecap:butt;stroke-linejoin:round;stroke:rgb(0%,0%,0%);stroke-opacity:1;stroke-miterlimit:10;" d="M 159.999219 688.000781 L 159.999219 672.000781 L 175.999219 672.000781 L 175.999219 688.000781 Z M 159.999219 688.000781 " transform="matrix(1,0,0,-1,-127.8,704.2)"/>
<path style="fill:none;stroke-width:0.4;stroke-linecap:butt;stroke-linejoin:round;stroke:rgb(0%,0%,0%);stroke-opacity:1;stroke-miterlimit:10;" d="M 191.999219 688.000781 L 191.999219 672.000781 L 207.999219 672.000781 L 207.999219 688.000781 Z M 191.999219 688.000781 " transform="matrix(1,0,0,-1,-127.8,704.2)"/>
<path style="fill:none;stroke-width:0.4;stroke-linecap:butt;stroke-linejoin:round;stroke:rgb(0%,0%,0%);stroke-opacity:1;stroke-miterlimit:10;" d="M 175.999219 688.000781 L 175.999219 672.000781 L 191.999219 672.000781 L 191.999219 688.000781 Z M 175.999219 688.000781 " transform="matrix(1,0,0,-1,-127.8,704.2)"/>
<path style="fill:none;stroke-width:0.4;stroke-linecap:butt;stroke-linejoin:round;stroke:rgb(0%,0%,0%);stroke-opacity:1;stroke-miterlimit:10;" d="M 127.999219 672.000781 L 127.999219 656.000781 L 143.999219 656.000781 L 143.999219 672.000781 Z M 127.999219 672.000781 " transform="matrix(1,0,0,-1,-127.8,704.2)"/>
<path style="fill:none;stroke-width:0.4;stroke-linecap:butt;stroke-linejoin:round;stroke:rgb(0%,0%,0%);stroke-opacity:1;stroke-miterlimit:10;" d="M 143.999219 672.000781 L 143.999219 656.000781 L 159.999219 656.000781 L 159.999219 672.000781 Z M 143.999219 672.000781 " transform="matrix(1,0,0,-1,-127.8,704.2)"/>
<path style="fill:none;stroke-width:0.4;stroke-linecap:butt;stroke-linejoin:round;stroke:rgb(0%,0%,0%);stroke-opacity:1;stroke-miterlimit:10;" d="M 159.999219 672.000781 L 159.999219 656.000781 L 175.999219 656.000781 L 175.999219 672.000781 Z M 159.999219 672.000781 " transform="matrix(1,0,0,-1,-127.8,704.2)"/>
<path style="fill:none;stroke-width:0.4;stroke-linecap:butt;stroke-linejoin:round;stroke:rgb(0%,0%,0%);stroke-opacity:1;stroke-miterlimit:10;" d="M 191.999219 672.000781 L 191.999219 656.000781 L 207.999219 656.000781 L 207.999219 672.000781 Z M 191.999219 672.000781 " transform="matrix(1,0,0,-1,-127.8,704.2)"/>
<path style="fill:none;stroke-width:0.4;stroke-linecap:butt;stroke-linejoin:round;stroke:rgb(0%,0%,0%);stroke-opacity:1;stroke-miterlimit:10;" d="M 175.999219 672.000781 L 175.999219 656.000781 L 191.999219 656.000781 L 191.999219 672.000781 Z M 175.999219 672.000781 " transform="matrix(1,0,0,-1,-127.8,704.2)"/>
<path style="fill:none;stroke-width:0.4;stroke-linecap:butt;stroke-linejoin:round;stroke:rgb(0%,0%,0%);stroke-opacity:1;stroke-miterlimit:10;" d="M 127.999219 656.000781 L 127.999219 640.000781 L 143.999219 640.000781 L 143.999219 656.000781 Z M 127.999219 656.000781 " transform="matrix(1,0,0,-1,-127.8,704.2)"/>
<path style="fill:none;stroke-width:0.4;stroke-linecap:butt;stroke-linejoin:round;stroke:rgb(0%,0%,0%);stroke-opacity:1;stroke-miterlimit:10;" d="M 143.999219 656.000781 L 143.999219 640.000781 L 159.999219 640.000781 L 159.999219 656.000781 Z M 143.999219 656.000781 " transform="matrix(1,0,0,-1,-127.8,704.2)"/>
<path style="fill:none;stroke-width:0.4;stroke-linecap:butt;stroke-linejoin:round;stroke:rgb(0%,0%,0%);stroke-opacity:1;stroke-miterlimit:10;" d="M 159.999219 656.000781 L 159.999219 640.000781 L 175.999219 640.000781 L 175.999219 656.000781 Z M 159.999219 656.000781 " transform="matrix(1,0,0,-1,-127.8,704.2)"/>
<path style="fill:none;stroke-width:0.4;stroke-linecap:butt;stroke-linejoin:round;stroke:rgb(0%,0%,0%);stroke-opacity:1;stroke-miterlimit:10;" d="M 191.999219 656.000781 L 191.999219 640.000781 L 207.999219 640.000781 L 207.999219 656.000781 Z M 191.999219 656.000781 " transform="matrix(1,0,0,-1,-127.8,704.2)"/>
<path style="fill:none;stroke-width:0.4;stroke-linecap:butt;stroke-linejoin:round;stroke:rgb(0%,0%,0%);stroke-opacity:1;stroke-miterlimit:10;" d="M 175.999219 656.000781 L 175.999219 640.000781 L 191.999219 640.000781 L 191.999219 656.000781 Z M 175.999219 656.000781 " transform="matrix(1,0,0,-1,-127.8,704.2)"/>
<path style="fill:none;stroke-width:0.4;stroke-linecap:butt;stroke-linejoin:round;stroke:rgb(0%,0%,0%);stroke-opacity:1;stroke-miterlimit:10;" d="M 127.999219 640.000781 L 127.999219 624.000781 L 143.999219 624.000781 L 143.999219 640.000781 Z M 127.999219 640.000781 " transform="matrix(1,0,0,-1,-127.8,704.2)"/>
<path style="fill:none;stroke-width:0.4;stroke-linecap:butt;stroke-linejoin:round;stroke:rgb(0%,0%,0%);stroke-opacity:1;stroke-miterlimit:10;" d="M 143.999219 640.000781 L 143.999219 624.000781 L 159.999219 624.000781 L 159.999219 640.000781 Z M 143.999219 640.000781 " transform="matrix(1,0,0,-1,-127.8,704.2)"/>
<path style="fill:none;stroke-width:0.4;stroke-linecap:butt;stroke-linejoin:round;stroke:rgb(0%,0%,0%);stroke-opacity:1;stroke-miterlimit:10;" d="M 159.999219 640.000781 L 159.999219 624.000781 L 175.999219 624.000781 L 175.999219 640.000781 Z M 159.999219 640.000781 " transform="matrix(1,0,0,-1,-127.8,704.2)"/>
<path style="fill:none;stroke-width:0.4;stroke-linecap:butt;stroke-linejoin:round;stroke:rgb(0%,0%,0%);stroke-opacity:1;stroke-miterlimit:10;" d="M 191.999219 640.000781 L 191.999219 624.000781 L 207.999219 624.000781 L 207.999219 640.000781 Z M 191.999219 640.000781 " transform="matrix(1,0,0,-1,-127.8,704.2)"/>
<path style="fill:none;stroke-width:0.4;stroke-linecap:butt;stroke-linejoin:round;stroke:rgb(0%,0%,0%);stroke-opacity:1;stroke-miterlimit:10;" d="M 175.999219 640.000781 L 175.999219 624.000781 L 191.999219 624.000781 L 191.999219 640.000781 Z M 175.999219 640.000781 " transform="matrix(1,0,0,-1,-127.8,704.2)"/>
<path style="fill:none;stroke-width:0.4;stroke-linecap:butt;stroke-linejoin:round;stroke:rgb(0%,0%,0%);stroke-opacity:1;stroke-miterlimit:10;" d="M 140.432813 632.000781 L 132.432813 632.000781 " transform="matrix(1,0,0,-1,-127.8,704.2)"/>
<path style="fill-rule:evenodd;fill:rgb(0%,0%,0%);fill-opacity:1;stroke-width:0.4;stroke-linecap:butt;stroke-linejoin:round;stroke:rgb(0%,0%,0%);stroke-opacity:1;stroke-miterlimit:10;" d="M 140.432813 632.000781 L 133.432813 634.332813 L 133.432813 629.66875 Z M 140.432813 632.000781 " transform="matrix(1,0,0,-1,-127.8,704.2)"/>
<path style="fill:none;stroke-width:0.4;stroke-linecap:butt;stroke-linejoin:round;stroke:rgb(0%,0%,0%);stroke-opacity:1;stroke-dasharray:1,3;stroke-miterlimit:10;" d="M 132.432813 632.000781 L 183.999219 632.000781 L 183.999219 680.000781 L 167.999219 680.000781 L 167.999219 664.000781 " transform="matrix(1,0,0,-1,-127.8,704.2)"/>
<path style="fill:none;stroke-width:0.4;stroke-linecap:butt;stroke-linejoin:round;stroke:rgb(0%,0%,0%);stroke-opacity:1;stroke-dasharray:1,3;stroke-miterlimit:10;" d="M 163.999219 664.000781 L 167.999219 664.000781 " transform="matrix(1,0,0,-1,-127.8,704.2)"/>
</g>
</svg>
